<?xml version="1.0" encoding="UTF-8"?>
<svg xmlns="http://www.w3.org/2000/svg" version="1.1" viewBox="0 0 856.22 121.87">
  <defs>
    <style>
      .cls-1 {
        fill: #231f20;
      }

      .cls-2 {
        fill: #ed1c24;
      }

      .cls-3 {
        fill: #65af45;
      }

      .cls-4 {
        fill: #f4c217;
      }

      .cls-5 {
        fill: #0892cd;
      }
    </style>
  </defs>
  <!-- Generator: Adobe Illustrator 28.6.0, SVG Export Plug-In . SVG Version: 1.2.0 Build 709)  -->
  <g>
    <g id="Layer_1">
      <g>
        <g>
          <path class="cls-1" d="M13.57,30.77h14.22l12.5,40.86,13.53-41.03h11.38l13.53,41.03,12.5-40.86h13.88l-20.6,60.77h-11.55l-13.62-39.48-13.62,39.48h-11.55L13.57,30.77Z"/>
          <path class="cls-1" d="M184.74,30.77h27.58c7.67,0,13.62,2.15,17.58,6.12,3.36,3.36,5.17,8.1,5.17,13.79v.17c0,9.74-5.26,15.86-12.93,18.7l14.74,21.55h-15.52l-12.93-19.31h-10.43v19.31h-13.27V30.77ZM211.46,60.07c6.46,0,10.17-3.45,10.17-8.53v-.17c0-5.69-3.97-8.62-10.43-8.62h-13.19v17.33h13.45Z"/>
          <path class="cls-1" d="M247.06,30.77h13.27v26.38l24.48-26.38h16.03l-24.57,25.6,25.69,34.74h-15.95l-18.71-25.69-6.98,7.24v18.45h-13.27V30.77Z"/>
          <path class="cls-1" d="M304.98,82.31l7.84-9.4c5.43,4.48,11.12,7.33,18.02,7.33,5.43,0,8.71-2.15,8.71-5.69v-.17c0-3.36-2.07-5.09-12.15-7.67-12.15-3.1-20-6.46-20-18.45v-.17c0-10.95,8.79-18.19,21.12-18.19,8.79,0,16.29,2.76,22.41,7.67l-6.89,10c-5.34-3.71-10.6-5.95-15.69-5.95s-7.76,2.33-7.76,5.26v.17c0,3.96,2.59,5.26,13.02,7.93,12.24,3.19,19.14,7.58,19.14,18.1v.17c0,11.98-9.14,18.7-22.15,18.7-9.14,0-18.36-3.19-25.6-9.65Z"/>
          <path class="cls-1" d="M364.27,30.77h24.65c14.4,0,23.1,8.53,23.1,20.86v.17c0,13.96-10.86,21.2-24.39,21.2h-10.09v18.1h-13.27V30.77ZM388.06,61.19c6.63,0,10.52-3.96,10.52-9.14v-.17c0-5.95-4.14-9.14-10.78-9.14h-10.26v18.45h10.52Z"/>
          <path class="cls-1" d="M436.5,30.33h12.24l25.86,60.77h-13.88l-5.52-13.53h-25.51l-5.52,13.53h-13.53l25.86-60.77ZM450.47,65.85l-8.02-19.57-8.02,19.57h16.04Z"/>
          <path class="cls-1" d="M477.35,61.11v-.17c0-17.15,12.93-31.2,31.46-31.2,11.38,0,18.19,3.79,23.79,9.31l-8.45,9.74c-4.65-4.22-9.4-6.81-15.43-6.81-10.17,0-17.5,8.45-17.5,18.79v.17c0,10.35,7.16,18.96,17.5,18.96,6.89,0,11.12-2.76,15.86-7.07l8.45,8.53c-6.21,6.64-13.1,10.78-24.74,10.78-17.76,0-30.95-13.71-30.95-31.03Z"/>
          <path class="cls-4" d="M161.91,59.38h10.18v-21.91c0-4.28-3.47-7.75-7.75-7.75h-21.91v10.18c10.41.76,18.72,9.07,19.48,19.48Z"/>
          <path class="cls-3" d="M119.85,62.48h-10.18v21.91c0,4.28,3.47,7.75,7.75,7.75h21.91v-10.18c-10.41-.76-18.72-9.07-19.48-19.48Z"/>
          <path class="cls-5" d="M139.33,39.91v-10.18h-21.91c-4.28,0-7.75,3.47-7.75,7.75v21.91h10.18c.76-10.41,9.07-18.72,19.48-19.48Z"/>
          <path class="cls-2" d="M142.43,81.96v10.18h21.91c4.28,0,7.75-3.47,7.75-7.75v-21.91h-10.18c-.76,10.41-9.07,18.72-19.48,19.48Z"/>
          <polygon class="cls-1" points="584.86 79.29 556.82 79.29 556.82 66.62 584.86 66.62 584.86 54.81 556.82 54.81 556.82 42.57 584.86 42.57 584.86 30.77 543.63 30.77 543.63 91.1 584.86 91.1 584.86 79.29"/>
        </g>
        <g>
          <path class="cls-1" d="M621.57,30.17h14.7l16.29,26.21,16.29-26.21h14.7v61.97h-13.46v-40.46l-17.44,26.47h-.35l-17.26-26.21v40.19h-13.46V30.17Z"/>
          <path class="cls-1" d="M719.67,29.73h12.57l26.56,62.42h-14.25l-5.67-13.9h-26.21l-5.67,13.9h-13.9l26.56-62.42ZM734.01,66.2l-8.23-20.1-8.23,20.1h16.47Z"/>
          <path class="cls-1" d="M768.98,30.17h13.63v61.97h-13.63V30.17Z"/>
          <path class="cls-1" d="M798.11,30.17h13.63v49.67h30.9v12.31h-44.53V30.17Z"/>
        </g>
      </g>
    </g>
  </g>
</svg>